<svg width="220" height="54" viewBox="0 0 220 54" fill="none" xmlns="http://www.w3.org/2000/svg">
<path d="M5.00212 25.0201C5.00212 18.2061 8.42877 12.1769 13.649 8.57153V2.73926C5.54748 6.87184 0 15.3006 0 25.0201C0 34.7395 5.55051 43.1713 13.6581 47.3039V41.4807C8.4318 37.8723 5.00212 31.84 5.00212 25.0201V25.0201ZM36.351 2.74532V8.57153C41.5712 12.1769 44.9979 18.2061 44.9979 25.0201C44.9979 31.834 41.5682 37.8692 36.3419 41.4807V47.3039C44.4495 43.1713 50 34.7425 50 25.0201C50 15.2976 44.4525 6.8779 36.351 2.74532Z" fill="white"/>
<path d="M24.9985 29.4981L15.6426 13.6767L18.6148 11.9194L24.9985 22.7205L31.3852 11.9194L34.3543 13.6767L24.9985 29.4981Z" fill="white"/>
<path d="M24.9985 40.6324L18.8542 30.2374V37.2422H15.4033V17.6245L24.9985 33.8519L34.5968 17.6245V37.2422H31.1459V30.2374L24.9985 40.6324Z" fill="white"/>
<path d="M34.553 1.80181V10.101L31.1352 8.18786L25.0017 17.4797L18.8651 8.18786L15.4473 10.101V1.7988C18.398 0.637703 21.621 0 24.9986 0C28.3762 0 31.6022 0.637703 34.553 1.80181Z" fill="white"/>
<path d="M24.9986 53.6585L34.553 49.1786V39.8308L29.6974 39.7723L29.6461 37.8049L24.9986 44.7818L20.3541 37.8049L20.3029 39.7723L15.4473 39.8308V49.1786L24.9986 53.6585Z" fill="white"/>
<path d="M62.7202 28.0001C62.1735 26.8401 61.6335 25.6334 61.1002 24.3801C60.5669 23.1267 60.0602 21.8867 59.5802 20.6601C59.1002 19.4334 58.6535 18.2601 58.2402 17.1401C57.8402 16.0201 57.4935 15.0201 57.2002 14.1401H60.6402C60.9069 14.9401 61.1935 15.8067 61.5002 16.7401C61.8202 17.6601 62.1402 18.5801 62.4602 19.5001C62.7935 20.4201 63.1135 21.3001 63.4202 22.1401C63.7269 22.9801 64.0135 23.7067 64.2802 24.3201C64.5335 23.7067 64.8135 22.9801 65.1202 22.1401C65.4402 21.3001 65.7602 20.4201 66.0802 19.5001C66.4135 18.5801 66.7335 17.6601 67.0402 16.7401C67.3602 15.8067 67.6535 14.9401 67.9202 14.1401H71.2402C70.9335 15.0201 70.5802 16.0201 70.1802 17.1401C69.7802 18.2601 69.3402 19.4334 68.8602 20.6601C68.3802 21.8867 67.8735 23.1267 67.3402 24.3801C66.8069 25.6334 66.2669 26.8401 65.7202 28.0001H62.7202Z" fill="white"/>
<path d="M72.0338 14.1401H75.1538V28.0001H72.0338V14.1401Z" fill="white"/>
<path d="M86.6219 25.3201V28.0001H77.3619V14.1401H80.4819V25.3201H86.6219Z" fill="white"/>
<path d="M93.5608 28.2801C91.3075 28.2801 89.5875 27.6534 88.4008 26.4001C87.2275 25.1467 86.6408 23.3667 86.6408 21.0601C86.6408 19.9134 86.8208 18.8934 87.1808 18.0001C87.5408 17.0934 88.0342 16.3334 88.6608 15.7201C89.2875 15.0934 90.0342 14.6201 90.9008 14.3001C91.7675 13.9801 92.7075 13.8201 93.7208 13.8201C94.3075 13.8201 94.8408 13.8667 95.3208 13.9601C95.8008 14.0401 96.2208 14.1401 96.5808 14.2601C96.9408 14.3667 97.2408 14.4801 97.4808 14.6001C97.7208 14.7201 97.8942 14.8134 98.0008 14.8801L97.1008 17.4001C96.6742 17.1734 96.1742 16.9801 95.6008 16.8201C95.0408 16.6601 94.4008 16.5801 93.6808 16.5801C93.2008 16.5801 92.7275 16.6601 92.2608 16.8201C91.8075 16.9801 91.4008 17.2401 91.0408 17.6001C90.6942 17.9467 90.4142 18.4001 90.2008 18.9601C89.9875 19.5201 89.8808 20.2001 89.8808 21.0001C89.8808 21.6401 89.9475 22.2401 90.0808 22.8001C90.2275 23.3467 90.4542 23.8201 90.7608 24.2201C91.0808 24.6201 91.4942 24.9401 92.0008 25.1801C92.5075 25.4067 93.1208 25.5201 93.8408 25.5201C94.2942 25.5201 94.7008 25.4934 95.0608 25.4401C95.4208 25.3867 95.7408 25.3267 96.0208 25.2601C96.3008 25.1801 96.5475 25.0934 96.7608 25.0001C96.9742 24.9067 97.1675 24.8201 97.3408 24.7401L98.2008 27.2401C97.7608 27.5067 97.1408 27.7467 96.3408 27.9601C95.5408 28.1734 94.6142 28.2801 93.5608 28.2801Z" fill="white"/>
<path d="M107.57 14.1401H110.69V28.0001H107.57V22.1201H102.33V28.0001H99.2096V14.1401H102.33V19.4401H107.57V14.1401Z" fill="white"/>
<path d="M112.897 28.0001V14.1401H122.257V16.7601H116.017V19.4801H121.557V22.0401H116.017V25.3801H122.717V28.0001H112.897Z" fill="white"/>
<path d="M127.806 25.6201C128.246 25.6201 128.606 25.5867 128.886 25.5201C129.179 25.4401 129.413 25.3401 129.586 25.2201C129.759 25.0867 129.879 24.9334 129.946 24.7601C130.013 24.5867 130.046 24.3934 130.046 24.1801C130.046 23.7267 129.833 23.3534 129.406 23.0601C128.979 22.7534 128.246 22.4267 127.206 22.0801C126.753 21.9201 126.299 21.7401 125.846 21.5401C125.393 21.3267 124.986 21.0667 124.626 20.7601C124.266 20.4401 123.973 20.0601 123.746 19.6201C123.519 19.1667 123.406 18.6201 123.406 17.9801C123.406 17.3401 123.526 16.7667 123.766 16.2601C124.006 15.7401 124.346 15.3001 124.786 14.9401C125.226 14.5801 125.759 14.3067 126.386 14.1201C127.013 13.9201 127.719 13.8201 128.506 13.8201C129.439 13.8201 130.246 13.9201 130.926 14.1201C131.606 14.3201 132.166 14.5401 132.606 14.7801L131.706 17.2401C131.319 17.0401 130.886 16.8667 130.406 16.7201C129.939 16.5601 129.373 16.4801 128.706 16.4801C127.959 16.4801 127.419 16.5867 127.086 16.8001C126.766 17.0001 126.606 17.3134 126.606 17.7401C126.606 17.9934 126.666 18.2067 126.786 18.3801C126.906 18.5534 127.073 18.7134 127.286 18.8601C127.513 18.9934 127.766 19.1201 128.046 19.2401C128.339 19.3467 128.659 19.4601 129.006 19.5801C129.726 19.8467 130.353 20.1134 130.886 20.3801C131.419 20.6334 131.859 20.9334 132.206 21.2801C132.566 21.6267 132.833 22.0334 133.006 22.5001C133.179 22.9667 133.266 23.5334 133.266 24.2001C133.266 25.4934 132.813 26.5001 131.906 27.2201C130.999 27.9267 129.633 28.2801 127.806 28.2801C127.193 28.2801 126.639 28.2401 126.146 28.1601C125.653 28.0934 125.213 28.0067 124.826 27.9001C124.453 27.7934 124.126 27.6801 123.846 27.5601C123.579 27.4401 123.353 27.3267 123.166 27.2201L124.046 24.7401C124.459 24.9667 124.966 25.1734 125.566 25.3601C126.179 25.5334 126.926 25.6201 127.806 25.6201Z" fill="white"/>
<path d="M142.151 14.1401C142.391 14.5801 142.665 15.1267 142.971 15.7801C143.291 16.4201 143.618 17.1201 143.951 17.8801C144.298 18.6267 144.638 19.3934 144.971 20.1801C145.305 20.9667 145.618 21.7067 145.911 22.4001C146.205 21.7067 146.518 20.9667 146.851 20.1801C147.185 19.3934 147.518 18.6267 147.851 17.8801C148.198 17.1201 148.525 16.4201 148.831 15.7801C149.151 15.1267 149.431 14.5801 149.671 14.1401H152.511C152.645 15.0601 152.765 16.0934 152.871 17.2401C152.991 18.3734 153.091 19.5601 153.171 20.8001C153.265 22.0267 153.345 23.2601 153.411 24.5001C153.491 25.7401 153.558 26.9067 153.611 28.0001H150.571C150.531 26.6534 150.478 25.1867 150.411 23.6001C150.345 22.0134 150.245 20.4134 150.111 18.8001C149.871 19.3601 149.605 19.9801 149.311 20.6601C149.018 21.3401 148.725 22.0201 148.431 22.7001C148.151 23.3801 147.878 24.0334 147.611 24.6601C147.345 25.2734 147.118 25.8001 146.931 26.2401H144.751C144.565 25.8001 144.338 25.2734 144.071 24.6601C143.805 24.0334 143.525 23.3801 143.231 22.7001C142.951 22.0201 142.665 21.3401 142.371 20.6601C142.078 19.9801 141.811 19.3601 141.571 18.8001C141.438 20.4134 141.338 22.0134 141.271 23.6001C141.205 25.1867 141.151 26.6534 141.111 28.0001H138.071C138.125 26.9067 138.185 25.7401 138.251 24.5001C138.331 23.2601 138.411 22.0267 138.491 20.8001C138.585 19.5601 138.685 18.3734 138.791 17.2401C138.911 16.0934 139.038 15.0601 139.171 14.1401H142.151Z" fill="white"/>
<path d="M160.841 28.2801C159.867 28.2801 159.027 28.1467 158.321 27.8801C157.614 27.6001 157.027 27.2201 156.561 26.7401C156.107 26.2467 155.767 25.6667 155.541 25.0001C155.327 24.3201 155.221 23.5734 155.221 22.7601V14.1401H158.341V22.5001C158.341 23.0601 158.401 23.5401 158.521 23.9401C158.654 24.3267 158.827 24.6467 159.041 24.9001C159.267 25.1401 159.534 25.3134 159.841 25.4201C160.161 25.5267 160.507 25.5801 160.881 25.5801C161.641 25.5801 162.254 25.3467 162.721 24.8801C163.201 24.4134 163.441 23.6201 163.441 22.5001V14.1401H166.561V22.7601C166.561 23.5734 166.447 24.3201 166.221 25.0001C165.994 25.6801 165.647 26.2667 165.181 26.7601C164.714 27.2401 164.121 27.6134 163.401 27.8801C162.681 28.1467 161.827 28.2801 160.841 28.2801Z" fill="white"/>
<path d="M172.621 13.9801C174.701 13.9801 176.294 14.3534 177.401 15.1001C178.508 15.8334 179.061 16.9801 179.061 18.5401C179.061 19.5134 178.834 20.3067 178.381 20.9201C177.941 21.5201 177.301 21.9934 176.461 22.3401C176.741 22.6867 177.034 23.0867 177.341 23.5401C177.648 23.9801 177.948 24.4467 178.241 24.9401C178.548 25.4201 178.841 25.9267 179.121 26.4601C179.401 26.9801 179.661 27.4934 179.901 28.0001H176.401C176.148 27.5467 175.888 27.0867 175.621 26.6201C175.368 26.1534 175.101 25.7001 174.821 25.2601C174.554 24.8201 174.288 24.4067 174.021 24.0201C173.754 23.6201 173.488 23.2601 173.221 22.9401H171.681V28.0001H168.561V14.3401C169.241 14.2067 169.941 14.1134 170.661 14.0601C171.394 14.0067 172.048 13.9801 172.621 13.9801ZM172.801 16.6401C172.574 16.6401 172.368 16.6467 172.181 16.6601C172.008 16.6734 171.841 16.6867 171.681 16.7001V20.4601H172.561C173.734 20.4601 174.574 20.3134 175.081 20.0201C175.588 19.7267 175.841 19.2267 175.841 18.5201C175.841 17.8401 175.581 17.3601 175.061 17.0801C174.554 16.7867 173.801 16.6401 172.801 16.6401Z" fill="white"/>
<path d="M180.901 14.1401H184.021V28.0001H180.901V14.1401Z" fill="white"/>
<path d="M195.489 25.3201V28.0001H186.229V14.1401H189.349V25.3201H195.489Z" fill="white"/>
<path d="M205.759 25.3201V28.0001H196.499V14.1401H199.619V25.3201H205.759Z" fill="white"/>
<path d="M208.998 21.0601C208.998 21.7401 209.078 22.3534 209.238 22.9001C209.411 23.4467 209.651 23.9201 209.958 24.3201C210.278 24.7067 210.664 25.0067 211.118 25.2201C211.571 25.4334 212.091 25.5401 212.678 25.5401C213.251 25.5401 213.764 25.4334 214.218 25.2201C214.684 25.0067 215.071 24.7067 215.378 24.3201C215.698 23.9201 215.938 23.4467 216.098 22.9001C216.271 22.3534 216.358 21.7401 216.358 21.0601C216.358 20.3801 216.271 19.7667 216.098 19.2201C215.938 18.6601 215.698 18.1867 215.378 17.8001C215.071 17.4001 214.684 17.0934 214.218 16.8801C213.764 16.6667 213.251 16.5601 212.678 16.5601C212.091 16.5601 211.571 16.6734 211.118 16.9001C210.664 17.1134 210.278 17.4201 209.958 17.8201C209.651 18.2067 209.411 18.6801 209.238 19.2401C209.078 19.7867 208.998 20.3934 208.998 21.0601ZM219.578 21.0601C219.578 22.2467 219.398 23.2934 219.038 24.2001C218.691 25.0934 218.211 25.8467 217.598 26.4601C216.984 27.0601 216.251 27.5134 215.398 27.8201C214.558 28.1267 213.651 28.2801 212.678 28.2801C211.731 28.2801 210.838 28.1267 209.998 27.8201C209.158 27.5134 208.424 27.0601 207.798 26.4601C207.171 25.8467 206.678 25.0934 206.318 24.2001C205.958 23.2934 205.778 22.2467 205.778 21.0601C205.778 19.8734 205.964 18.8334 206.338 17.9401C206.711 17.0334 207.211 16.2734 207.838 15.6601C208.478 15.0467 209.211 14.5867 210.038 14.2801C210.878 13.9734 211.758 13.8201 212.678 13.8201C213.624 13.8201 214.518 13.9734 215.358 14.2801C216.198 14.5867 216.931 15.0467 217.558 15.6601C218.184 16.2734 218.678 17.0334 219.038 17.9401C219.398 18.8334 219.578 19.8734 219.578 21.0601Z" fill="white"/>
<path d="M65.8904 34.8014V35.5684H63.0044V43.8104H62.1204V35.5684H59.2344V34.8014H65.8904Z" fill="white"/>
<path d="M72.6851 43.1994C73.0144 43.1994 73.3004 43.1907 73.5431 43.1734C73.7944 43.1474 74.0068 43.117 74.1801 43.0824V40.7164C74.0848 40.673 73.9331 40.6297 73.7251 40.5864C73.5171 40.5344 73.2311 40.5084 72.8671 40.5084C72.6591 40.5084 72.4424 40.5257 72.2171 40.5604C71.9918 40.5864 71.7838 40.6514 71.5931 40.7554C71.4024 40.8507 71.2464 40.985 71.1251 41.1584C71.0038 41.3317 70.9431 41.5614 70.9431 41.8474C70.9431 42.0987 70.9821 42.311 71.0601 42.4844C71.1468 42.6577 71.2638 42.7964 71.4111 42.9004C71.5671 43.0044 71.7491 43.0824 71.9571 43.1344C72.1738 43.1777 72.4164 43.1994 72.6851 43.1994ZM72.6071 36.9334C73.0491 36.9334 73.4218 36.9984 73.7251 37.1284C74.0371 37.2497 74.2884 37.423 74.4791 37.6484C74.6698 37.865 74.8084 38.125 74.8951 38.4284C74.9818 38.7317 75.0251 39.061 75.0251 39.4164V43.6544C74.9384 43.6804 74.8128 43.7107 74.6481 43.7454C74.4834 43.7714 74.2928 43.8017 74.0761 43.8364C73.8594 43.871 73.6168 43.897 73.3481 43.9144C73.0881 43.9404 72.8194 43.9534 72.5421 43.9534C72.1868 43.9534 71.8574 43.9144 71.5541 43.8364C71.2594 43.7584 70.9994 43.637 70.7741 43.4724C70.5574 43.299 70.3841 43.0824 70.2541 42.8224C70.1328 42.5537 70.0721 42.2287 70.0721 41.8474C70.0721 41.4834 70.1414 41.1714 70.2801 40.9114C70.4188 40.6514 70.6138 40.439 70.8651 40.2744C71.1164 40.101 71.4154 39.9754 71.7621 39.8974C72.1088 39.8194 72.4858 39.7804 72.8931 39.7804C73.0144 39.7804 73.1401 39.789 73.2701 39.8064C73.4088 39.815 73.5388 39.8324 73.6601 39.8584C73.7901 39.8757 73.8984 39.8974 73.9851 39.9234C74.0804 39.9407 74.1454 39.958 74.1801 39.9754V39.5594C74.1801 39.3254 74.1628 39.1 74.1281 38.8834C74.0934 38.658 74.0154 38.4587 73.8941 38.2854C73.7814 38.1034 73.6168 37.9604 73.4001 37.8564C73.1921 37.7437 72.9148 37.6874 72.5681 37.6874C72.0741 37.6874 71.7058 37.722 71.4631 37.7914C71.2204 37.8607 71.0428 37.917 70.9301 37.9604L70.8131 37.2194C70.9604 37.15 71.1858 37.085 71.4891 37.0244C71.8011 36.9637 72.1738 36.9334 72.6071 36.9334Z" fill="white"/>
<path d="M82.6534 43.9274C82.3674 43.9187 82.116 43.8797 81.8994 43.8104C81.6914 43.7497 81.5137 43.6544 81.3664 43.5244C81.2277 43.3857 81.1194 43.2124 81.0414 43.0044C80.972 42.7877 80.9374 42.519 80.9374 42.1984V33.8784L81.7824 33.7224V42.1724C81.7824 42.3804 81.7997 42.5494 81.8344 42.6794C81.8777 42.8007 81.9384 42.9004 82.0164 42.9784C82.0944 43.0477 82.194 43.0997 82.3154 43.1344C82.4454 43.169 82.597 43.1994 82.7704 43.2254L82.6534 43.9274Z" fill="white"/>
<path d="M89.7368 43.9274C89.4508 43.9187 89.1995 43.8797 88.9828 43.8104C88.7748 43.7497 88.5972 43.6544 88.4498 43.5244C88.3112 43.3857 88.2028 43.2124 88.1248 43.0044C88.0555 42.7877 88.0208 42.519 88.0208 42.1984V33.8784L88.8658 33.7224V42.1724C88.8658 42.3804 88.8832 42.5494 88.9178 42.6794C88.9612 42.8007 89.0218 42.9004 89.0998 42.9784C89.1778 43.0477 89.2775 43.0997 89.3988 43.1344C89.5288 43.169 89.6805 43.1994 89.8538 43.2254L89.7368 43.9274Z" fill="white"/>
<path d="M94.7143 40.4434C94.7143 39.854 94.7967 39.3427 94.9613 38.9094C95.1347 38.4674 95.3557 38.099 95.6243 37.8044C95.9017 37.5097 96.2137 37.293 96.5603 37.1544C96.9157 37.007 97.2797 36.9334 97.6523 36.9334C98.4757 36.9334 99.13 37.202 99.6153 37.7394C100.109 38.2767 100.356 39.1044 100.356 40.2224C100.356 40.2917 100.352 40.361 100.343 40.4304C100.343 40.4997 100.339 40.5647 100.33 40.6254H95.6113C95.6373 41.4487 95.841 42.0814 96.2223 42.5234C96.6037 42.9654 97.2103 43.1864 98.0423 43.1864C98.5017 43.1864 98.8657 43.143 99.1343 43.0564C99.403 42.9697 99.598 42.896 99.7193 42.8354L99.8753 43.5634C99.754 43.6327 99.5243 43.715 99.1863 43.8104C98.857 43.9057 98.467 43.9534 98.0163 43.9534C97.427 43.9534 96.9243 43.8667 96.5083 43.6934C96.0923 43.52 95.75 43.2774 95.4813 42.9654C95.2127 42.6534 95.0177 42.285 94.8963 41.8604C94.775 41.427 94.7143 40.9547 94.7143 40.4434ZM99.4853 39.9104C99.468 39.2084 99.3033 38.6624 98.9913 38.2724C98.6793 37.8824 98.2373 37.6874 97.6653 37.6874C97.362 37.6874 97.089 37.748 96.8463 37.8694C96.6123 37.9907 96.4043 38.1554 96.2223 38.3634C96.049 38.5627 95.9103 38.7967 95.8063 39.0654C95.711 39.334 95.6547 39.6157 95.6373 39.9104H99.4853Z" fill="white"/>
<path d="M108.297 36.9594C108.575 36.9594 108.835 36.981 109.077 37.0244C109.329 37.0677 109.502 37.111 109.597 37.1544L109.428 37.8824C109.359 37.8477 109.216 37.813 108.999 37.7784C108.791 37.735 108.514 37.7134 108.167 37.7134C107.803 37.7134 107.509 37.7394 107.283 37.7914C107.067 37.8434 106.924 37.8867 106.854 37.9214V43.8104H106.009V37.4014C106.226 37.306 106.525 37.2107 106.906 37.1154C107.288 37.0114 107.751 36.9594 108.297 36.9594Z" fill="white"/>
<path d="M127.48 43.8104C127.315 43.3684 127.159 42.9437 127.012 42.5364C126.864 42.129 126.721 41.7304 126.583 41.3404H122.202C122.054 41.7304 121.907 42.129 121.76 42.5364C121.612 42.9437 121.461 43.3684 121.305 43.8104H120.382C120.728 42.8744 121.053 42.0034 121.357 41.1974C121.66 40.3827 121.955 39.6157 122.241 38.8964C122.535 38.1684 122.826 37.4707 123.112 36.8034C123.398 36.136 123.701 35.4687 124.022 34.8014H124.802C125.122 35.4687 125.426 36.136 125.712 36.8034C125.998 37.4707 126.284 38.1684 126.57 38.8964C126.864 39.6157 127.163 40.3827 127.467 41.1974C127.77 42.0034 128.099 42.8744 128.455 43.8104H127.48ZM124.386 35.8154C124.056 36.5607 123.736 37.319 123.424 38.0904C123.12 38.8617 122.804 39.6937 122.475 40.5864H126.31C125.98 39.6937 125.66 38.8617 125.348 38.0904C125.036 37.319 124.715 36.5607 124.386 35.8154Z" fill="white"/>
<path d="M138.629 43.5764C138.377 43.6457 138.039 43.7237 137.615 43.8104C137.19 43.897 136.67 43.9404 136.055 43.9404C135.552 43.9404 135.132 43.8667 134.794 43.7194C134.456 43.572 134.183 43.364 133.975 43.0954C133.767 42.8267 133.615 42.5017 133.52 42.1204C133.433 41.739 133.39 41.3187 133.39 40.8594V37.0894H134.235V40.5864C134.235 41.063 134.269 41.466 134.339 41.7954C134.408 42.1247 134.521 42.3934 134.677 42.6014C134.833 42.8007 135.032 42.948 135.275 43.0434C135.526 43.13 135.829 43.1734 136.185 43.1734C136.583 43.1734 136.93 43.1517 137.225 43.1084C137.519 43.065 137.706 43.026 137.784 42.9914V37.0894H138.629V43.5764Z" fill="white"/>
<path d="M145.432 37.0894H148.11V37.8044H145.432V41.3794C145.432 41.7607 145.463 42.0727 145.523 42.3154C145.593 42.5494 145.688 42.7314 145.809 42.8614C145.931 42.9914 146.078 43.078 146.251 43.1214C146.425 43.1647 146.615 43.1864 146.823 43.1864C147.179 43.1864 147.465 43.1474 147.681 43.0694C147.898 42.9827 148.067 42.9047 148.188 42.8354L148.396 43.5374C148.275 43.6154 148.063 43.7064 147.759 43.8104C147.456 43.9057 147.127 43.9534 146.771 43.9534C146.355 43.9534 146.004 43.9014 145.718 43.7974C145.441 43.6847 145.216 43.52 145.042 43.3034C144.878 43.078 144.761 42.8007 144.691 42.4714C144.622 42.142 144.587 41.752 144.587 41.3014V35.1134L145.432 34.9574V37.0894Z" fill="white"/>
<path d="M159.17 40.4564C159.17 40.985 159.092 41.466 158.936 41.8994C158.788 42.3327 158.576 42.701 158.299 43.0044C158.03 43.3077 157.709 43.546 157.337 43.7194C156.964 43.884 156.552 43.9664 156.102 43.9664C155.651 43.9664 155.239 43.884 154.867 43.7194C154.494 43.546 154.169 43.3077 153.892 43.0044C153.623 42.701 153.411 42.3327 153.255 41.8994C153.107 41.466 153.034 40.985 153.034 40.4564C153.034 39.9277 153.107 39.4467 153.255 39.0134C153.411 38.58 153.623 38.2117 153.892 37.9084C154.169 37.5964 154.494 37.358 154.867 37.1934C155.239 37.02 155.651 36.9334 156.102 36.9334C156.552 36.9334 156.964 37.02 157.337 37.1934C157.709 37.358 158.03 37.5964 158.299 37.9084C158.576 38.2117 158.788 38.58 158.936 39.0134C159.092 39.4467 159.17 39.9277 159.17 40.4564ZM158.273 40.4564C158.273 39.6157 158.078 38.9484 157.688 38.4544C157.298 37.9517 156.769 37.7004 156.102 37.7004C155.434 37.7004 154.906 37.9517 154.516 38.4544C154.126 38.9484 153.931 39.6157 153.931 40.4564C153.931 41.297 154.126 41.9644 154.516 42.4584C154.906 42.9524 155.434 43.1994 156.102 43.1994C156.769 43.1994 157.298 42.9524 157.688 42.4584C158.078 41.9644 158.273 41.297 158.273 40.4564Z" fill="white"/>
<path d="M164.773 37.3234C165.024 37.254 165.349 37.176 165.748 37.0894C166.155 37.0027 166.68 36.9594 167.321 36.9594C168.17 36.9594 168.786 37.2064 169.167 37.7004C169.21 37.6657 169.293 37.6094 169.414 37.5314C169.544 37.4447 169.704 37.358 169.895 37.2714C170.086 37.1847 170.307 37.111 170.558 37.0504C170.818 36.9897 171.104 36.9594 171.416 36.9594C171.927 36.9594 172.339 37.0374 172.651 37.1934C172.972 37.3407 173.219 37.553 173.392 37.8304C173.565 38.099 173.682 38.424 173.743 38.8054C173.804 39.1867 173.834 39.6027 173.834 40.0534V43.8104H172.989V40.3264C172.989 39.8844 172.967 39.503 172.924 39.1824C172.889 38.853 172.811 38.5844 172.69 38.3764C172.577 38.1597 172.413 37.9994 172.196 37.8954C171.979 37.7827 171.698 37.7264 171.351 37.7264C171.091 37.7264 170.853 37.7524 170.636 37.8044C170.428 37.8477 170.246 37.904 170.09 37.9734C169.934 38.0427 169.804 38.112 169.7 38.1814C169.605 38.2507 169.535 38.3027 169.492 38.3374C169.57 38.5627 169.626 38.8184 169.661 39.1044C169.704 39.3817 169.726 39.6764 169.726 39.9884V43.8104H168.881V40.3264C168.881 39.8844 168.859 39.503 168.816 39.1824C168.781 38.853 168.703 38.5844 168.582 38.3764C168.461 38.1597 168.287 37.9994 168.062 37.8954C167.845 37.7827 167.555 37.7264 167.191 37.7264C166.784 37.7264 166.437 37.748 166.151 37.7914C165.874 37.8347 165.696 37.8737 165.618 37.9084V43.8104H164.773V37.3234Z" fill="white"/>
<path d="M185.499 40.4564C185.499 40.985 185.421 41.466 185.265 41.8994C185.117 42.3327 184.905 42.701 184.628 43.0044C184.359 43.3077 184.038 43.546 183.666 43.7194C183.293 43.884 182.881 43.9664 182.431 43.9664C181.98 43.9664 181.568 43.884 181.196 43.7194C180.823 43.546 180.498 43.3077 180.221 43.0044C179.952 42.701 179.74 42.3327 179.584 41.8994C179.436 41.466 179.363 40.985 179.363 40.4564C179.363 39.9277 179.436 39.4467 179.584 39.0134C179.74 38.58 179.952 38.2117 180.221 37.9084C180.498 37.5964 180.823 37.358 181.196 37.1934C181.568 37.02 181.98 36.9334 182.431 36.9334C182.881 36.9334 183.293 37.02 183.666 37.1934C184.038 37.358 184.359 37.5964 184.628 37.9084C184.905 38.2117 185.117 38.58 185.265 39.0134C185.421 39.4467 185.499 39.9277 185.499 40.4564ZM184.602 40.4564C184.602 39.6157 184.407 38.9484 184.017 38.4544C183.627 37.9517 183.098 37.7004 182.431 37.7004C181.763 37.7004 181.235 37.9517 180.845 38.4544C180.455 38.9484 180.26 39.6157 180.26 40.4564C180.26 41.297 180.455 41.9644 180.845 42.4584C181.235 42.9524 181.763 43.1994 182.431 43.1994C183.098 43.1994 183.627 42.9524 184.017 42.4584C184.407 41.9644 184.602 41.297 184.602 40.4564Z" fill="white"/>
<path d="M191.895 37.0894H194.573V37.8044H191.895V41.3794C191.895 41.7607 191.925 42.0727 191.986 42.3154C192.055 42.5494 192.151 42.7314 192.272 42.8614C192.393 42.9914 192.541 43.078 192.714 43.1214C192.887 43.1647 193.078 43.1864 193.286 43.1864C193.641 43.1864 193.927 43.1474 194.144 43.0694C194.361 42.9827 194.53 42.9047 194.651 42.8354L194.859 43.5374C194.738 43.6154 194.525 43.7064 194.222 43.8104C193.919 43.9057 193.589 43.9534 193.234 43.9534C192.818 43.9534 192.467 43.9014 192.181 43.7974C191.904 43.6847 191.678 43.52 191.505 43.3034C191.34 43.078 191.223 42.8007 191.154 42.4714C191.085 42.142 191.05 41.752 191.05 41.3014V35.1134L191.895 34.9574V37.0894Z" fill="white"/>
<path d="M202.187 36.9594C202.465 36.9594 202.725 36.981 202.967 37.0244C203.219 37.0677 203.392 37.111 203.487 37.1544L203.318 37.8824C203.249 37.8477 203.106 37.813 202.889 37.7784C202.681 37.735 202.404 37.7134 202.057 37.7134C201.693 37.7134 201.399 37.7394 201.173 37.7914C200.957 37.8434 200.814 37.8867 200.744 37.9214V43.8104H199.899V37.4014C200.116 37.306 200.415 37.2107 200.796 37.1154C201.178 37.0114 201.641 36.9594 202.187 36.9594Z" fill="white"/>
<path d="M209.377 43.8104H208.532V37.0894H209.377V43.8104ZM209.572 35.0614C209.572 35.2607 209.511 35.421 209.39 35.5424C209.268 35.655 209.121 35.7114 208.948 35.7114C208.774 35.7114 208.627 35.655 208.506 35.5424C208.384 35.421 208.324 35.2607 208.324 35.0614C208.324 34.862 208.384 34.706 208.506 34.5934C208.627 34.472 208.774 34.4114 208.948 34.4114C209.121 34.4114 209.268 34.472 209.39 34.5934C209.511 34.706 209.572 34.862 209.572 35.0614Z" fill="white"/>
<path d="M219.56 37.7784C219.36 38.0037 219.1 38.3157 218.78 38.7144C218.459 39.113 218.117 39.5594 217.753 40.0534C217.389 40.5387 217.029 41.05 216.674 41.5874C216.318 42.116 216.006 42.6187 215.738 43.0954H219.677V43.8104H214.763V43.1994C214.988 42.7747 215.265 42.3067 215.595 41.7954C215.933 41.284 216.279 40.7814 216.635 40.2874C216.99 39.7847 217.337 39.3167 217.675 38.8834C218.013 38.4414 218.299 38.0817 218.533 37.8044H214.958V37.0894H219.56V37.7784Z" fill="white"/>
</svg>
