<?xml version="1.0" encoding="UTF-8"?><svg id="a" xmlns="http://www.w3.org/2000/svg" viewBox="0 0 50 53.66"><defs><style>.b{fill:#fff;}</style></defs><path class="b" d="M5,25.02c0-6.81,3.43-12.84,8.65-16.45V2.74C5.55,6.87,0,15.3,0,25.02s5.55,18.15,13.66,22.28v-5.82c-5.23-3.61-8.66-9.64-8.66-16.46h0ZM36.35,2.75v5.83c5.22,3.61,8.65,9.63,8.65,16.45s-3.43,12.85-8.66,16.46v5.82c8.11-4.13,13.66-12.56,13.66-22.28S44.45,6.88,36.35,2.75Z"/><path class="b" d="M25,29.5L15.64,13.68l2.97-1.76,6.38,10.8,6.39-10.8,2.97,1.76-9.36,15.82Z"/><path class="b" d="M25,40.63l-6.14-10.4v7h-3.45V17.62l9.6,16.23,9.6-16.23v19.62h-3.45v-7l-6.15,10.4Z"/><path class="b" d="M34.55,1.8V10.1l-3.42-1.91-6.13,9.29-6.14-9.29-3.42,1.91V1.8c2.95-1.16,6.17-1.8,9.55-1.8s6.6,.64,9.55,1.8Z"/><path class="b" d="M25,53.66l9.55-4.48v-9.35l-4.86-.06-.05-1.97-4.65,6.98-4.64-6.98-.05,1.97-4.86,.06v9.35l9.55,4.48Z"/></svg>