<svg width="220" height="54" viewBox="0 0 220 54" fill="none" xmlns="http://www.w3.org/2000/svg">
<path d="M5.00212 25.0201C5.00212 18.2061 8.42877 12.1769 13.649 8.57153V2.73926C5.54748 6.87184 0 15.3006 0 25.0201C0 34.7395 5.55051 43.1713 13.6581 47.3039V41.4807C8.4318 37.8723 5.00212 31.84 5.00212 25.0201ZM36.351 2.74532V8.57153C41.5712 12.1769 44.9979 18.2061 44.9979 25.0201C44.9979 31.834 41.5682 37.8692 36.3419 41.4807V47.3039C44.4495 43.1713 50 34.7425 50 25.0201C50 15.2976 44.4525 6.8779 36.351 2.74532Z" fill="black"/>
<path d="M24.9987 29.4981L15.6428 13.6767L18.615 11.9194L24.9987 22.7205L31.3854 11.9194L34.3546 13.6767L24.9987 29.4981Z" fill="#1264DF"/>
<path d="M24.9988 40.6325L18.8545 30.2374V37.2422H15.4036V17.6245L24.9988 33.8519L34.597 17.6245V37.2422H31.1462V30.2374L24.9988 40.6325Z" fill="black"/>
<path d="M34.553 1.80181V10.101L31.1352 8.18786L25.0017 17.4797L18.8651 8.18786L15.4473 10.101V1.7988C18.398 0.637703 21.621 0 24.9986 0C28.3762 0 31.6022 0.637703 34.553 1.80181Z" fill="#1264DF"/>
<path d="M24.9986 53.6586L34.553 49.1787V39.8309L29.6974 39.7724L29.6461 37.8049L24.9986 44.7819L20.3541 37.8049L20.3029 39.7724L15.4473 39.8309V49.1787L24.9986 53.6586Z" fill="#1264DF"/>
<path d="M62.72 28.0001C62.1733 26.8401 61.6333 25.6334 61.1 24.3801C60.5666 23.1267 60.06 21.8867 59.58 20.6601C59.1 19.4334 58.6533 18.2601 58.24 17.1401C57.84 16.0201 57.4933 15.0201 57.2 14.1401H60.64C60.9066 14.9401 61.1933 15.8067 61.5 16.7401C61.82 17.6601 62.14 18.5801 62.46 19.5001C62.7933 20.4201 63.1133 21.3001 63.42 22.1401C63.7266 22.9801 64.0133 23.7067 64.28 24.3201C64.5333 23.7067 64.8133 22.9801 65.12 22.1401C65.44 21.3001 65.76 20.4201 66.08 19.5001C66.4133 18.5801 66.7333 17.6601 67.04 16.7401C67.36 15.8067 67.6533 14.9401 67.92 14.1401H71.24C70.9333 15.0201 70.58 16.0201 70.18 17.1401C69.78 18.2601 69.34 19.4334 68.86 20.6601C68.38 21.8867 67.8733 23.1267 67.34 24.3801C66.8066 25.6334 66.2666 26.8401 65.72 28.0001H62.72Z" fill="black"/>
<path d="M72.0335 14.1401H75.1535V28.0001H72.0335V14.1401Z" fill="black"/>
<path d="M86.6217 25.3201V28.0001H77.3617V14.1401H80.4817V25.3201H86.6217Z" fill="black"/>
<path d="M93.5606 28.2801C91.3072 28.2801 89.5872 27.6534 88.4006 26.4001C87.2272 25.1467 86.6406 23.3667 86.6406 21.0601C86.6406 19.9134 86.8206 18.8934 87.1806 18.0001C87.5406 17.0934 88.0339 16.3334 88.6606 15.7201C89.2872 15.0934 90.0339 14.6201 90.9006 14.3001C91.7672 13.9801 92.7072 13.8201 93.7206 13.8201C94.3072 13.8201 94.8406 13.8667 95.3206 13.9601C95.8006 14.0401 96.2206 14.1401 96.5806 14.2601C96.9406 14.3667 97.2406 14.4801 97.4806 14.6001C97.7206 14.7201 97.8939 14.8134 98.0006 14.8801L97.1006 17.4001C96.6739 17.1734 96.1739 16.9801 95.6006 16.8201C95.0406 16.6601 94.4006 16.5801 93.6806 16.5801C93.2006 16.5801 92.7272 16.6601 92.2606 16.8201C91.8072 16.9801 91.4006 17.2401 91.0406 17.6001C90.6939 17.9467 90.4139 18.4001 90.2006 18.9601C89.9872 19.5201 89.8806 20.2001 89.8806 21.0001C89.8806 21.6401 89.9472 22.2401 90.0806 22.8001C90.2272 23.3467 90.4539 23.8201 90.7606 24.2201C91.0806 24.6201 91.4939 24.9401 92.0006 25.1801C92.5072 25.4067 93.1206 25.5201 93.8406 25.5201C94.2939 25.5201 94.7006 25.4934 95.0606 25.4401C95.4206 25.3867 95.7406 25.3267 96.0206 25.2601C96.3006 25.1801 96.5472 25.0934 96.7606 25.0001C96.9739 24.9067 97.1672 24.8201 97.3406 24.7401L98.2006 27.2401C97.7606 27.5067 97.1406 27.7467 96.3406 27.9601C95.5406 28.1734 94.6139 28.2801 93.5606 28.2801Z" fill="black"/>
<path d="M107.569 14.1401H110.689V28.0001H107.569V22.1201H102.329V28.0001H99.2093V14.1401H102.329V19.4401H107.569V14.1401Z" fill="black"/>
<path d="M112.897 28.0001V14.1401H122.257V16.7601H116.017V19.4801H121.557V22.0401H116.017V25.3801H122.717V28.0001H112.897Z" fill="black"/>
<path d="M127.806 25.6201C128.246 25.6201 128.606 25.5867 128.886 25.5201C129.179 25.4401 129.412 25.3401 129.586 25.2201C129.759 25.0867 129.879 24.9334 129.946 24.7601C130.012 24.5867 130.046 24.3934 130.046 24.1801C130.046 23.7267 129.832 23.3534 129.406 23.0601C128.979 22.7534 128.246 22.4267 127.206 22.0801C126.752 21.9201 126.299 21.7401 125.846 21.5401C125.392 21.3267 124.986 21.0667 124.626 20.7601C124.266 20.4401 123.972 20.0601 123.746 19.6201C123.519 19.1667 123.406 18.6201 123.406 17.9801C123.406 17.3401 123.526 16.7667 123.766 16.2601C124.006 15.7401 124.346 15.3001 124.786 14.9401C125.226 14.5801 125.759 14.3067 126.386 14.1201C127.012 13.9201 127.719 13.8201 128.506 13.8201C129.439 13.8201 130.246 13.9201 130.926 14.1201C131.606 14.3201 132.166 14.5401 132.606 14.7801L131.706 17.2401C131.319 17.0401 130.886 16.8667 130.406 16.7201C129.939 16.5601 129.372 16.4801 128.706 16.4801C127.959 16.4801 127.419 16.5867 127.086 16.8001C126.766 17.0001 126.606 17.3134 126.606 17.7401C126.606 17.9934 126.666 18.2067 126.786 18.3801C126.906 18.5534 127.072 18.7134 127.286 18.8601C127.512 18.9934 127.766 19.1201 128.046 19.2401C128.339 19.3467 128.659 19.4601 129.006 19.5801C129.726 19.8467 130.352 20.1134 130.886 20.3801C131.419 20.6334 131.859 20.9334 132.206 21.2801C132.566 21.6267 132.832 22.0334 133.006 22.5001C133.179 22.9667 133.266 23.5334 133.266 24.2001C133.266 25.4934 132.812 26.5001 131.906 27.2201C130.999 27.9267 129.632 28.2801 127.806 28.2801C127.192 28.2801 126.639 28.2401 126.146 28.1601C125.652 28.0934 125.212 28.0067 124.826 27.9001C124.452 27.7934 124.126 27.6801 123.846 27.5601C123.579 27.4401 123.352 27.3267 123.166 27.2201L124.046 24.7401C124.459 24.9667 124.966 25.1734 125.566 25.3601C126.179 25.5334 126.926 25.6201 127.806 25.6201Z" fill="black"/>
<path d="M142.151 14.1401C142.391 14.5801 142.664 15.1267 142.971 15.7801C143.291 16.4201 143.618 17.1201 143.951 17.8801C144.298 18.6267 144.638 19.3934 144.971 20.1801C145.304 20.9667 145.618 21.7067 145.911 22.4001C146.204 21.7067 146.518 20.9667 146.851 20.1801C147.184 19.3934 147.518 18.6267 147.851 17.8801C148.198 17.1201 148.524 16.4201 148.831 15.7801C149.151 15.1267 149.431 14.5801 149.671 14.1401H152.511C152.644 15.0601 152.764 16.0934 152.871 17.2401C152.991 18.3734 153.091 19.5601 153.171 20.8001C153.264 22.0267 153.344 23.2601 153.411 24.5001C153.491 25.7401 153.558 26.9067 153.611 28.0001H150.571C150.531 26.6534 150.478 25.1867 150.411 23.6001C150.344 22.0134 150.244 20.4134 150.111 18.8001C149.871 19.3601 149.604 19.9801 149.311 20.6601C149.018 21.3401 148.724 22.0201 148.431 22.7001C148.151 23.3801 147.878 24.0334 147.611 24.6601C147.344 25.2734 147.118 25.8001 146.931 26.2401H144.751C144.564 25.8001 144.338 25.2734 144.071 24.6601C143.804 24.0334 143.524 23.3801 143.231 22.7001C142.951 22.0201 142.664 21.3401 142.371 20.6601C142.078 19.9801 141.811 19.3601 141.571 18.8001C141.438 20.4134 141.338 22.0134 141.271 23.6001C141.204 25.1867 141.151 26.6534 141.111 28.0001H138.071C138.124 26.9067 138.184 25.7401 138.251 24.5001C138.331 23.2601 138.411 22.0267 138.491 20.8001C138.584 19.5601 138.684 18.3734 138.791 17.2401C138.911 16.0934 139.038 15.0601 139.171 14.1401H142.151Z" fill="black"/>
<path d="M160.84 28.2801C159.867 28.2801 159.027 28.1467 158.32 27.8801C157.614 27.6001 157.027 27.2201 156.56 26.7401C156.107 26.2467 155.767 25.6667 155.54 25.0001C155.327 24.3201 155.22 23.5734 155.22 22.7601V14.1401H158.34V22.5001C158.34 23.0601 158.4 23.5401 158.52 23.9401C158.654 24.3267 158.827 24.6467 159.04 24.9001C159.267 25.1401 159.534 25.3134 159.84 25.4201C160.16 25.5267 160.507 25.5801 160.88 25.5801C161.64 25.5801 162.254 25.3467 162.72 24.8801C163.2 24.4134 163.44 23.6201 163.44 22.5001V14.1401H166.56V22.7601C166.56 23.5734 166.447 24.3201 166.22 25.0001C165.994 25.6801 165.647 26.2667 165.18 26.7601C164.714 27.2401 164.12 27.6134 163.4 27.8801C162.68 28.1467 161.827 28.2801 160.84 28.2801Z" fill="black"/>
<path d="M172.621 13.9801C174.701 13.9801 176.294 14.3534 177.401 15.1001C178.508 15.8334 179.061 16.9801 179.061 18.5401C179.061 19.5134 178.834 20.3067 178.381 20.9201C177.941 21.5201 177.301 21.9934 176.461 22.3401C176.741 22.6867 177.034 23.0867 177.341 23.5401C177.648 23.9801 177.948 24.4467 178.241 24.9401C178.548 25.4201 178.841 25.9267 179.121 26.4601C179.401 26.9801 179.661 27.4934 179.901 28.0001H176.401C176.148 27.5467 175.888 27.0867 175.621 26.6201C175.368 26.1534 175.101 25.7001 174.821 25.2601C174.554 24.8201 174.288 24.4067 174.021 24.0201C173.754 23.6201 173.488 23.2601 173.221 22.9401H171.681V28.0001H168.561V14.3401C169.241 14.2067 169.941 14.1134 170.661 14.0601C171.394 14.0067 172.048 13.9801 172.621 13.9801ZM172.801 16.6401C172.574 16.6401 172.368 16.6467 172.181 16.6601C172.008 16.6734 171.841 16.6867 171.681 16.7001V20.4601H172.561C173.734 20.4601 174.574 20.3134 175.081 20.0201C175.588 19.7267 175.841 19.2267 175.841 18.5201C175.841 17.8401 175.581 17.3601 175.061 17.0801C174.554 16.7867 173.801 16.6401 172.801 16.6401Z" fill="black"/>
<path d="M180.901 14.1401H184.021V28.0001H180.901V14.1401Z" fill="black"/>
<path d="M195.489 25.3201V28.0001H186.229V14.1401H189.349V25.3201H195.489Z" fill="black"/>
<path d="M205.758 25.3201V28.0001H196.498V14.1401H199.618V25.3201H205.758Z" fill="black"/>
<path d="M208.997 21.0601C208.997 21.7401 209.077 22.3534 209.237 22.9001C209.411 23.4467 209.651 23.9201 209.957 24.3201C210.277 24.7067 210.664 25.0067 211.117 25.2201C211.571 25.4334 212.091 25.5401 212.677 25.5401C213.251 25.5401 213.764 25.4334 214.217 25.2201C214.684 25.0067 215.071 24.7067 215.377 24.3201C215.697 23.9201 215.937 23.4467 216.097 22.9001C216.271 22.3534 216.357 21.7401 216.357 21.0601C216.357 20.3801 216.271 19.7667 216.097 19.2201C215.937 18.6601 215.697 18.1867 215.377 17.8001C215.071 17.4001 214.684 17.0934 214.217 16.8801C213.764 16.6667 213.251 16.5601 212.677 16.5601C212.091 16.5601 211.571 16.6734 211.117 16.9001C210.664 17.1134 210.277 17.4201 209.957 17.8201C209.651 18.2067 209.411 18.6801 209.237 19.2401C209.077 19.7867 208.997 20.3934 208.997 21.0601ZM219.577 21.0601C219.577 22.2467 219.397 23.2934 219.037 24.2001C218.691 25.0934 218.211 25.8467 217.597 26.4601C216.984 27.0601 216.251 27.5134 215.397 27.8201C214.557 28.1267 213.651 28.2801 212.677 28.2801C211.731 28.2801 210.837 28.1267 209.997 27.8201C209.157 27.5134 208.424 27.0601 207.797 26.4601C207.171 25.8467 206.677 25.0934 206.317 24.2001C205.957 23.2934 205.777 22.2467 205.777 21.0601C205.777 19.8734 205.964 18.8334 206.337 17.9401C206.711 17.0334 207.211 16.2734 207.837 15.6601C208.477 15.0467 209.211 14.5867 210.037 14.2801C210.877 13.9734 211.757 13.8201 212.677 13.8201C213.624 13.8201 214.517 13.9734 215.357 14.2801C216.197 14.5867 216.931 15.0467 217.557 15.6601C218.184 16.2734 218.677 17.0334 219.037 17.9401C219.397 18.8334 219.577 19.8734 219.577 21.0601Z" fill="black"/>
<path d="M65.8899 34.8014V35.5684H63.0039V43.8104H62.1199V35.5684H59.2339V34.8014H65.8899Z" fill="black"/>
<path d="M72.6846 43.1994C73.014 43.1994 73.3 43.1907 73.5426 43.1734C73.794 43.1474 74.0063 43.1171 74.1796 43.0824V40.7164C74.0843 40.6731 73.9326 40.6297 73.7246 40.5864C73.5166 40.5344 73.2306 40.5084 72.8666 40.5084C72.6586 40.5084 72.442 40.5257 72.2166 40.5604C71.9913 40.5864 71.7833 40.6514 71.5926 40.7554C71.402 40.8507 71.246 40.9851 71.1246 41.1584C71.0033 41.3317 70.9426 41.5614 70.9426 41.8474C70.9426 42.0987 70.9816 42.3111 71.0596 42.4844C71.1463 42.6577 71.2633 42.7964 71.4106 42.9004C71.5666 43.0044 71.7486 43.0824 71.9566 43.1344C72.1733 43.1777 72.416 43.1994 72.6846 43.1994ZM72.6066 36.9334C73.0486 36.9334 73.4213 36.9984 73.7246 37.1284C74.0366 37.2497 74.288 37.4231 74.4786 37.6484C74.6693 37.8651 74.808 38.1251 74.8946 38.4284C74.9813 38.7317 75.0246 39.0611 75.0246 39.4164V43.6544C74.938 43.6804 74.8123 43.7107 74.6476 43.7454C74.483 43.7714 74.2923 43.8017 74.0756 43.8364C73.859 43.8711 73.6163 43.8971 73.3476 43.9144C73.0876 43.9404 72.819 43.9534 72.5416 43.9534C72.1863 43.9534 71.857 43.9144 71.5536 43.8364C71.259 43.7584 70.999 43.6371 70.7736 43.4724C70.557 43.2991 70.3836 43.0824 70.2536 42.8224C70.1323 42.5537 70.0716 42.2287 70.0716 41.8474C70.0716 41.4834 70.141 41.1714 70.2796 40.9114C70.4183 40.6514 70.6133 40.4391 70.8646 40.2744C71.116 40.1011 71.415 39.9754 71.7616 39.8974C72.1083 39.8194 72.4853 39.7804 72.8926 39.7804C73.014 39.7804 73.1396 39.7891 73.2696 39.8064C73.4083 39.8151 73.5383 39.8324 73.6596 39.8584C73.7896 39.8757 73.898 39.8974 73.9846 39.9234C74.08 39.9407 74.145 39.9581 74.1796 39.9754V39.5594C74.1796 39.3254 74.1623 39.1001 74.1276 38.8834C74.093 38.6581 74.015 38.4587 73.8936 38.2854C73.781 38.1034 73.6163 37.9604 73.3996 37.8564C73.1916 37.7437 72.9143 37.6874 72.5676 37.6874C72.0736 37.6874 71.7053 37.7221 71.4626 37.7914C71.22 37.8607 71.0423 37.9171 70.9296 37.9604L70.8126 37.2194C70.96 37.1501 71.1853 37.0851 71.4886 37.0244C71.8006 36.9637 72.1733 36.9334 72.6066 36.9334Z" fill="black"/>
<path d="M82.6529 43.9274C82.3669 43.9187 82.1155 43.8797 81.8989 43.8104C81.6909 43.7497 81.5132 43.6544 81.3659 43.5244C81.2272 43.3857 81.1189 43.2124 81.0409 43.0044C80.9715 42.7877 80.9369 42.5191 80.9369 42.1984V33.8784L81.7819 33.7224V42.1724C81.7819 42.3804 81.7992 42.5494 81.8339 42.6794C81.8772 42.8007 81.9379 42.9004 82.0159 42.9784C82.0939 43.0477 82.1935 43.0997 82.3149 43.1344C82.4449 43.1691 82.5965 43.1994 82.7699 43.2254L82.6529 43.9274Z" fill="black"/>
<path d="M89.7364 43.9274C89.4504 43.9187 89.199 43.8797 88.9824 43.8104C88.7744 43.7497 88.5967 43.6544 88.4494 43.5244C88.3107 43.3857 88.2024 43.2124 88.1244 43.0044C88.055 42.7877 88.0204 42.5191 88.0204 42.1984V33.8784L88.8654 33.7224V42.1724C88.8654 42.3804 88.8827 42.5494 88.9174 42.6794C88.9607 42.8007 89.0214 42.9004 89.0994 42.9784C89.1774 43.0477 89.277 43.0997 89.3984 43.1344C89.5284 43.1691 89.68 43.1994 89.8534 43.2254L89.7364 43.9274Z" fill="black"/>
<path d="M94.7138 40.4434C94.7138 39.8541 94.7962 39.3427 94.9608 38.9094C95.1342 38.4674 95.3552 38.0991 95.6238 37.8044C95.9012 37.5097 96.2132 37.2931 96.5598 37.1544C96.9152 37.0071 97.2792 36.9334 97.6518 36.9334C98.4752 36.9334 99.1295 37.2021 99.6148 37.7394C100.109 38.2767 100.356 39.1044 100.356 40.2224C100.356 40.2917 100.352 40.3611 100.343 40.4304C100.343 40.4997 100.339 40.5647 100.33 40.6254H95.6108C95.6368 41.4487 95.8405 42.0814 96.2218 42.5234C96.6032 42.9654 97.2098 43.1864 98.0418 43.1864C98.5012 43.1864 98.8652 43.1431 99.1338 43.0564C99.4025 42.9697 99.5975 42.8961 99.7188 42.8354L99.8748 43.5634C99.7535 43.6327 99.5238 43.7151 99.1858 43.8104C98.8565 43.9057 98.4665 43.9534 98.0158 43.9534C97.4265 43.9534 96.9238 43.8667 96.5078 43.6934C96.0918 43.5201 95.7495 43.2774 95.4808 42.9654C95.2122 42.6534 95.0172 42.2851 94.8958 41.8604C94.7745 41.4271 94.7138 40.9547 94.7138 40.4434ZM99.4848 39.9104C99.4675 39.2084 99.3028 38.6624 98.9908 38.2724C98.6788 37.8824 98.2368 37.6874 97.6648 37.6874C97.3615 37.6874 97.0885 37.7481 96.8458 37.8694C96.6118 37.9907 96.4038 38.1554 96.2218 38.3634C96.0485 38.5627 95.9098 38.7967 95.8058 39.0654C95.7105 39.3341 95.6542 39.6157 95.6368 39.9104H99.4848Z" fill="black"/>
<path d="M108.297 36.9594C108.574 36.9594 108.834 36.9811 109.077 37.0244C109.328 37.0677 109.502 37.1111 109.597 37.1544L109.428 37.8824C109.359 37.8477 109.216 37.8131 108.999 37.7784C108.791 37.7351 108.514 37.7134 108.167 37.7134C107.803 37.7134 107.508 37.7394 107.283 37.7914C107.066 37.8434 106.923 37.8867 106.854 37.9214V43.8104H106.009V37.4014C106.226 37.3061 106.525 37.2107 106.906 37.1154C107.287 37.0114 107.751 36.9594 108.297 36.9594Z" fill="black"/>
<path d="M127.479 43.8104C127.315 43.3684 127.159 42.9437 127.011 42.5364C126.864 42.1291 126.721 41.7304 126.582 41.3404H122.201C122.054 41.7304 121.907 42.1291 121.759 42.5364C121.612 42.9437 121.46 43.3684 121.304 43.8104H120.381C120.728 42.8744 121.053 42.0034 121.356 41.1974C121.66 40.3827 121.954 39.6157 122.24 38.8964C122.535 38.1684 122.825 37.4707 123.111 36.8034C123.397 36.1361 123.701 35.4687 124.021 34.8014H124.801C125.122 35.4687 125.425 36.1361 125.711 36.8034C125.997 37.4707 126.283 38.1684 126.569 38.8964C126.864 39.6157 127.163 40.3827 127.466 41.1974C127.77 42.0034 128.099 42.8744 128.454 43.8104H127.479ZM124.385 35.8154C124.056 36.5607 123.735 37.3191 123.423 38.0904C123.12 38.8617 122.804 39.6937 122.474 40.5864H126.309C125.98 39.6937 125.659 38.8617 125.347 38.0904C125.035 37.3191 124.715 36.5607 124.385 35.8154Z" fill="black"/>
<path d="M138.628 43.5764C138.377 43.6457 138.039 43.7237 137.614 43.8104C137.19 43.8971 136.67 43.9404 136.054 43.9404C135.552 43.9404 135.131 43.8667 134.793 43.7194C134.455 43.5721 134.182 43.3641 133.974 43.0954C133.766 42.8267 133.615 42.5017 133.519 42.1204C133.433 41.7391 133.389 41.3187 133.389 40.8594V37.0894H134.234V40.5864C134.234 41.0631 134.269 41.4661 134.338 41.7954C134.408 42.1247 134.52 42.3934 134.676 42.6014C134.832 42.8007 135.032 42.9481 135.274 43.0434C135.526 43.1301 135.829 43.1734 136.184 43.1734C136.583 43.1734 136.93 43.1517 137.224 43.1084C137.519 43.0651 137.705 43.0261 137.783 42.9914V37.0894H138.628V43.5764Z" fill="black"/>
<path d="M145.432 37.0894H148.11V37.8044H145.432V41.3794C145.432 41.7607 145.462 42.0727 145.523 42.3154C145.592 42.5494 145.687 42.7314 145.809 42.8614C145.93 42.9914 146.077 43.0781 146.251 43.1214C146.424 43.1647 146.615 43.1864 146.823 43.1864C147.178 43.1864 147.464 43.1474 147.681 43.0694C147.897 42.9827 148.066 42.9047 148.188 42.8354L148.396 43.5374C148.274 43.6154 148.062 43.7064 147.759 43.8104C147.455 43.9057 147.126 43.9534 146.771 43.9534C146.355 43.9534 146.004 43.9014 145.718 43.7974C145.44 43.6847 145.215 43.5201 145.042 43.3034C144.877 43.0781 144.76 42.8007 144.691 42.4714C144.621 42.1421 144.587 41.7521 144.587 41.3014V35.1134L145.432 34.9574V37.0894Z" fill="black"/>
<path d="M159.169 40.4564C159.169 40.9851 159.091 41.4661 158.935 41.8994C158.788 42.3327 158.575 42.7011 158.298 43.0044C158.029 43.3077 157.709 43.5461 157.336 43.7194C156.963 43.8841 156.552 43.9664 156.101 43.9664C155.65 43.9664 155.239 43.8841 154.866 43.7194C154.493 43.5461 154.168 43.3077 153.891 43.0044C153.622 42.7011 153.41 42.3327 153.254 41.8994C153.107 41.4661 153.033 40.9851 153.033 40.4564C153.033 39.9277 153.107 39.4467 153.254 39.0134C153.41 38.5801 153.622 38.2117 153.891 37.9084C154.168 37.5964 154.493 37.3581 154.866 37.1934C155.239 37.0201 155.65 36.9334 156.101 36.9334C156.552 36.9334 156.963 37.0201 157.336 37.1934C157.709 37.3581 158.029 37.5964 158.298 37.9084C158.575 38.2117 158.788 38.5801 158.935 39.0134C159.091 39.4467 159.169 39.9277 159.169 40.4564ZM158.272 40.4564C158.272 39.6157 158.077 38.9484 157.687 38.4544C157.297 37.9517 156.768 37.7004 156.101 37.7004C155.434 37.7004 154.905 37.9517 154.515 38.4544C154.125 38.9484 153.93 39.6157 153.93 40.4564C153.93 41.2971 154.125 41.9644 154.515 42.4584C154.905 42.9524 155.434 43.1994 156.101 43.1994C156.768 43.1994 157.297 42.9524 157.687 42.4584C158.077 41.9644 158.272 41.2971 158.272 40.4564Z" fill="black"/>
<path d="M164.772 37.3234C165.024 37.2541 165.349 37.1761 165.747 37.0894C166.155 37.0027 166.679 36.9594 167.32 36.9594C168.17 36.9594 168.785 37.2064 169.166 37.7004C169.21 37.6657 169.292 37.6094 169.413 37.5314C169.543 37.4447 169.704 37.3581 169.894 37.2714C170.085 37.1847 170.306 37.1111 170.557 37.0504C170.817 36.9897 171.103 36.9594 171.415 36.9594C171.927 36.9594 172.338 37.0374 172.65 37.1934C172.971 37.3407 173.218 37.5531 173.391 37.8304C173.565 38.0991 173.682 38.4241 173.742 38.8054C173.803 39.1867 173.833 39.6027 173.833 40.0534V43.8104H172.988V40.3264C172.988 39.8844 172.967 39.5031 172.923 39.1824C172.889 38.8531 172.811 38.5844 172.689 38.3764C172.577 38.1597 172.412 37.9994 172.195 37.8954C171.979 37.7827 171.697 37.7264 171.35 37.7264C171.09 37.7264 170.852 37.7524 170.635 37.8044C170.427 37.8477 170.245 37.9041 170.089 37.9734C169.933 38.0427 169.803 38.1121 169.699 38.1814C169.604 38.2507 169.535 38.3027 169.491 38.3374C169.569 38.5627 169.626 38.8184 169.66 39.1044C169.704 39.3817 169.725 39.6764 169.725 39.9884V43.8104H168.88V40.3264C168.88 39.8844 168.859 39.5031 168.815 39.1824C168.781 38.8531 168.703 38.5844 168.581 38.3764C168.46 38.1597 168.287 37.9994 168.061 37.8954C167.845 37.7827 167.554 37.7264 167.19 37.7264C166.783 37.7264 166.436 37.7481 166.15 37.7914C165.873 37.8347 165.695 37.8737 165.617 37.9084V43.8104H164.772V37.3234Z" fill="black"/>
<path d="M185.498 40.4564C185.498 40.9851 185.42 41.4661 185.264 41.8994C185.117 42.3327 184.904 42.7011 184.627 43.0044C184.358 43.3077 184.038 43.5461 183.665 43.7194C183.292 43.8841 182.881 43.9664 182.43 43.9664C181.979 43.9664 181.568 43.8841 181.195 43.7194C180.822 43.5461 180.497 43.3077 180.22 43.0044C179.951 42.7011 179.739 42.3327 179.583 41.8994C179.436 41.4661 179.362 40.9851 179.362 40.4564C179.362 39.9277 179.436 39.4467 179.583 39.0134C179.739 38.5801 179.951 38.2117 180.22 37.9084C180.497 37.5964 180.822 37.3581 181.195 37.1934C181.568 37.0201 181.979 36.9334 182.43 36.9334C182.881 36.9334 183.292 37.0201 183.665 37.1934C184.038 37.3581 184.358 37.5964 184.627 37.9084C184.904 38.2117 185.117 38.5801 185.264 39.0134C185.42 39.4467 185.498 39.9277 185.498 40.4564ZM184.601 40.4564C184.601 39.6157 184.406 38.9484 184.016 38.4544C183.626 37.9517 183.097 37.7004 182.43 37.7004C181.763 37.7004 181.234 37.9517 180.844 38.4544C180.454 38.9484 180.259 39.6157 180.259 40.4564C180.259 41.2971 180.454 41.9644 180.844 42.4584C181.234 42.9524 181.763 43.1994 182.43 43.1994C183.097 43.1994 183.626 42.9524 184.016 42.4584C184.406 41.9644 184.601 41.2971 184.601 40.4564Z" fill="black"/>
<path d="M191.895 37.0894H194.573V37.8044H191.895V41.3794C191.895 41.7607 191.925 42.0727 191.986 42.3154C192.055 42.5494 192.15 42.7314 192.272 42.8614C192.393 42.9914 192.54 43.0781 192.714 43.1214C192.887 43.1647 193.078 43.1864 193.286 43.1864C193.641 43.1864 193.927 43.1474 194.144 43.0694C194.36 42.9827 194.529 42.9047 194.651 42.8354L194.859 43.5374C194.737 43.6154 194.525 43.7064 194.222 43.8104C193.918 43.9057 193.589 43.9534 193.234 43.9534C192.818 43.9534 192.467 43.9014 192.181 43.7974C191.903 43.6847 191.678 43.5201 191.505 43.3034C191.34 43.0781 191.223 42.8007 191.154 42.4714C191.084 42.1421 191.05 41.7521 191.05 41.3014V35.1134L191.895 34.9574V37.0894Z" fill="black"/>
<path d="M202.187 36.9594C202.464 36.9594 202.724 36.9811 202.967 37.0244C203.218 37.0677 203.392 37.1111 203.487 37.1544L203.318 37.8824C203.249 37.8477 203.106 37.8131 202.889 37.7784C202.681 37.7351 202.404 37.7134 202.057 37.7134C201.693 37.7134 201.398 37.7394 201.173 37.7914C200.956 37.8434 200.813 37.8867 200.744 37.9214V43.8104H199.899V37.4014C200.116 37.3061 200.415 37.2107 200.796 37.1154C201.177 37.0114 201.641 36.9594 202.187 36.9594Z" fill="black"/>
<path d="M209.376 43.8104H208.531V37.0894H209.376V43.8104ZM209.571 35.0614C209.571 35.2607 209.511 35.4211 209.389 35.5424C209.268 35.6551 209.121 35.7114 208.947 35.7114C208.774 35.7114 208.627 35.6551 208.505 35.5424C208.384 35.4211 208.323 35.2607 208.323 35.0614C208.323 34.8621 208.384 34.7061 208.505 34.5934C208.627 34.4721 208.774 34.4114 208.947 34.4114C209.121 34.4114 209.268 34.4721 209.389 34.5934C209.511 34.7061 209.571 34.8621 209.571 35.0614Z" fill="black"/>
<path d="M219.559 37.7784C219.36 38.0037 219.1 38.3157 218.779 38.7144C218.458 39.1131 218.116 39.5594 217.752 40.0534C217.388 40.5387 217.028 41.0501 216.673 41.5874C216.318 42.1161 216.006 42.6187 215.737 43.0954H219.676V43.8104H214.762V43.1994C214.987 42.7747 215.265 42.3067 215.594 41.7954C215.932 41.2841 216.279 40.7814 216.634 40.2874C216.989 39.7847 217.336 39.3167 217.674 38.8834C218.012 38.4414 218.298 38.0817 218.532 37.8044H214.957V37.0894H219.559V37.7784Z" fill="black"/>
</svg>
